<svg xmlns="http://www.w3.org/2000/svg" viewBox="0 0 800 1200"><defs><linearGradient id="b" x2="0" y2="1"><stop stop-color="#071522"/><stop offset=".55" stop-color="#10283a"/><stop offset="1" stop-color="#050a10"/></linearGradient><radialGradient id="g"><stop stop-color="#35e0d0" stop-opacity=".3"/><stop offset="1" stop-color="#35e0d0" stop-opacity="0"/></radialGradient></defs><rect width="800" height="1200" fill="url(#b)"/><circle cx="620" cy="260" r="330" fill="url(#g)"/><rect x="55" y="120" width="690" height="410" rx="24" fill="#0b1824" stroke="#35556a" stroke-width="5"/><rect x="95" y="155" width="610" height="300" rx="12" fill="#142b3a"/><path d="M100 455h600" stroke="#79a9b8" stroke-width="8"/><path d="M0 760h800v440H0z" fill="#101923"/><path d="M40 820h720l-45 330H85z" fill="#172936" stroke="#416275" stroke-width="5"/><g fill="#2d9c9b" stroke="#9ae9df" stroke-width="3"><path d="M120 260h55v150h-55z"/><path d="M200 300h55v110h-55z"/><path d="M280 220h55v190h-55z"/><path d="M360 290h55v120h-55z"/><path d="M470 240h55v170h-55z"/></g><g fill="#b8d7e0" opacity=".8"><circle cx="130" cy="735" r="35"/><circle cx="690" cy="735" r="35"/></g><path d="M400 540v180M310 630h180" stroke="#59d8cf" stroke-width="8" opacity=".55"/><text x="400" y="95" text-anchor="middle" fill="#bfeaf0" font-size="28" font-family="sans-serif" letter-spacing="5">ЛАБОРАТОРНЫЙ СТОЛ</text></svg>