<svg xmlns="http://www.w3.org/2000/svg" viewBox="0 0 800 1200"><defs><linearGradient id="b" x2="0" y2="1"><stop stop-color="#08111d"/><stop offset=".55" stop-color="#18283a"/><stop offset="1" stop-color="#05090e"/></linearGradient></defs><rect width="800" height="1200" fill="url(#b)"/><g stroke="#4d7180" stroke-width="6" fill="#102331"><rect x="55" y="150" width="210" height="850"/><rect x="295" y="110" width="210" height="890"/><rect x="535" y="150" width="210" height="850"/></g><g fill="#5ccfc5" opacity=".75"><rect x="80" y="205" width="160" height="85" rx="10"/><rect x="80" y="340" width="160" height="85" rx="10"/><rect x="80" y="475" width="160" height="85" rx="10"/><rect x="320" y="165" width="160" height="85" rx="10"/><rect x="320" y="300" width="160" height="85" rx="10"/><rect x="320" y="435" width="160" height="85" rx="10"/><rect x="560" y="205" width="160" height="85" rx="10"/><rect x="560" y="340" width="160" height="85" rx="10"/><rect x="560" y="475" width="160" height="85" rx="10"/></g><g fill="#d8a65b"><circle cx="145" cy="690" r="30"/><circle cx="385" cy="650" r="30"/><circle cx="625" cy="690" r="30"/></g><path d="M0 1020h800" stroke="#79a9b8" stroke-width="10"/><text x="400" y="80" text-anchor="middle" fill="#bfeaf0" font-size="28" font-family="sans-serif" letter-spacing="5">ХРАНИЛИЩЕ ОБРАЗЦОВ</text></svg>